<?xml version="1.0" encoding="UTF-8"?>
<svg id="Layer_2" xmlns="http://www.w3.org/2000/svg" viewBox="0 0 1563.51 317.8">
  <defs>
    <style>
      .cls-1 {
        fill: #fff;
      }

      .cls-2 {
        fill: #a8c7e3;
      }
    </style>
  </defs>
  <g id="Layer_1-2" data-name="Layer_1">
    <g>
      <g id="_x3C_Radial_Repeat_x3E_">
        <path class="cls-2" d="M159.42,0c19.27,0,35.65.92,53.7,9.18l-2.05,19.58c-24.47-11.2-51.88-10.94-77.26-7.48l93.34,116.18-17.21,10.19L100.74,10.78l11.21-4.17C127.39.86,143.43,0,159.42,0Z"/>
      </g>
      <g id="_x3C_Radial_Repeat_x3E_-2" data-name="_x3C_Radial_Repeat_x3E_">
        <path class="cls-2" d="M271.63,46.91c13.63,13.62,24.56,25.86,31.48,44.47l-15.29,12.4c-9.38-25.23-28.95-44.42-49.34-59.93l-16.15,148.15-19.38-4.96L222.51,13.04l10.88,4.98c14.98,6.85,26.93,17.58,38.23,28.89Z"/>
      </g>
      <g id="_x3C_Radial_Repeat_x3E_-3" data-name="_x3C_Radial_Repeat_x3E_">
        <path class="cls-2" d="M317.8,159.42c0,19.27-.92,35.65-9.18,53.7l-19.58-2.05c11.2-24.47,10.94-51.88,7.48-77.26l-116.18,93.34-10.19-17.21,136.86-109.21,4.17,11.21c5.74,15.44,6.61,31.47,6.61,47.47Z"/>
      </g>
      <g id="_x3C_Radial_Repeat_x3E_-4" data-name="_x3C_Radial_Repeat_x3E_">
        <path class="cls-2" d="M270.9,271.63c-13.62,13.63-25.86,24.56-44.47,31.48l-12.4-15.29c25.23-9.38,44.42-28.95,59.93-49.34l-148.15-16.15,4.96-19.38,174,19.56-4.98,10.88c-6.85,14.98-17.58,26.93-28.89,38.23Z"/>
      </g>
      <g id="_x3C_Radial_Repeat_x3E_-5" data-name="_x3C_Radial_Repeat_x3E_">
        <path class="cls-2" d="M158.38,317.8c-19.27,0-35.65-.92-53.7-9.18l2.05-19.58c24.47,11.2,51.88,10.94,77.26,7.48l-93.34-116.18,17.21-10.19,109.21,136.86-11.21,4.17c-15.44,5.74-31.47,6.61-47.47,6.61Z"/>
      </g>
      <g id="_x3C_Radial_Repeat_x3E_-6" data-name="_x3C_Radial_Repeat_x3E_">
        <path class="cls-2" d="M46.18,270.9c-13.63-13.62-24.56-25.86-31.48-44.47l15.29-12.4c9.38,25.23,28.95,44.42,49.34,59.93l16.15-148.15,19.38,4.96-19.56,174-10.88-4.98c-14.98-6.85-26.93-17.58-38.23-28.89Z"/>
      </g>
      <g id="_x3C_Radial_Repeat_x3E_-7" data-name="_x3C_Radial_Repeat_x3E_">
        <path class="cls-2" d="M0,158.38c0-19.27.92-35.65,9.18-53.7l19.58,2.05c-11.2,24.47-10.94,51.88-7.48,77.26l116.18-93.34,10.19,17.21L10.78,217.06l-4.17-11.21C.86,190.41,0,174.38,0,158.38Z"/>
      </g>
      <g id="_x3C_Radial_Repeat_x3E_-8" data-name="_x3C_Radial_Repeat_x3E_">
        <path class="cls-2" d="M46.91,46.18c13.62-13.63,25.86-24.56,44.47-31.48l12.4,15.29c-25.23,9.38-44.42,28.95-59.93,49.34l148.15,16.15-4.96,19.38L13.04,95.29l4.98-10.88c6.85-14.98,17.58-26.93,28.89-38.23Z"/>
      </g>
    </g>
    <g>
      <path class="cls-1" d="M529.79,32.04v118.6h-23.37v-48.18h-53.02v48.18h-23.37V32.04h23.37v47.86h53.02v-47.86h23.37Z"/>
      <path class="cls-1" d="M581.35,106.81c0,3.76,1.13,7.36,3.38,10.8,2.26,3.44,5.24,6.23,8.94,8.38,3.71,2.15,7.76,3.22,12.17,3.22,4.83,0,9.13-1.07,12.89-3.22,3.76-2.15,6.74-4.94,8.94-8.38,2.2-3.44,3.3-7.04,3.3-10.8V32.04h23.04v75.25c0,8.7-2.15,16.41-6.45,23.12-4.3,6.72-10.1,11.98-17.4,15.79-7.31,3.81-15.42,5.72-24.33,5.72s-16.84-1.91-24.09-5.72c-7.25-3.81-13.03-9.08-17.32-15.79-4.3-6.71-6.45-14.42-6.45-23.12V32.04h23.37v74.77Z"/>
      <path class="cls-1" d="M778.43,138.72c-1.4,1.51-3.6,3.04-6.61,4.59-3.01,1.56-6.47,2.98-10.39,4.27-3.92,1.29-7.92,2.34-12.01,3.14-4.08.81-7.95,1.21-11.6,1.21-9.67,0-18.37-1.42-26.11-4.27-7.74-2.85-14.34-6.82-19.82-11.92-5.48-5.1-9.67-11.14-12.57-18.13-2.9-6.98-4.35-14.61-4.35-22.88,0-10.85,1.64-20.28,4.91-28.28,3.28-8,7.74-14.66,13.38-19.98,5.64-5.32,12.14-9.27,19.5-11.84,7.36-2.58,15.07-3.87,23.12-3.87,7.63,0,14.61.83,20.95,2.5,6.34,1.67,11.71,3.73,16.11,6.2l-7.57,21.75c-1.93-1.07-4.51-2.15-7.73-3.22-3.22-1.07-6.5-1.96-9.83-2.66-3.33-.7-6.28-1.05-8.86-1.05-6.45,0-12.14.81-17.08,2.42-4.94,1.61-9.11,4.03-12.49,7.25-3.38,3.22-5.94,7.23-7.65,12-1.72,4.78-2.58,10.34-2.58,16.68,0,5.59.97,10.61,2.9,15.07,1.93,4.46,4.65,8.25,8.14,11.36,3.49,3.12,7.63,5.48,12.41,7.09,4.78,1.61,10.07,2.42,15.87,2.42,3.33,0,6.39-.24,9.18-.73,2.79-.48,5.16-1.26,7.09-2.34v-14.34h-20.47v-22.56h44.15v50.12Z"/>
      <path class="cls-1" d="M904.76,32.04v118.6h-23.37v-48.18h-53.02v48.18h-23.37V32.04h23.37v47.86h53.02v-47.86h23.37Z"/>
      <path class="cls-1" d="M1022.56,32.04c12.35,0,22.18,2.5,29.49,7.49,7.3,5,10.96,12.44,10.96,22.32,0,7.31-1.8,13.4-5.4,18.29-3.6,4.89-8.49,8.54-14.66,10.96-6.18,2.42-13.24,3.63-21.19,3.63l-3.71-12.57c9.77,0,18.45,1.34,26.02,4.03,7.57,2.69,13.56,6.53,17.97,11.52,4.4,5,6.61,10.99,6.61,17.97,0,6.45-1.16,11.9-3.46,16.36-2.31,4.46-5.43,8.06-9.35,10.8-3.92,2.74-8.35,4.73-13.29,5.96-4.94,1.24-10.05,1.85-15.31,1.85h-39.48V32.04h34.81ZM1025.3,80.55c4.62,0,8.03-1.4,10.23-4.19,2.2-2.79,3.3-5.96,3.3-9.51,0-4.08-1.37-7.14-4.11-9.19-2.74-2.04-6.42-3.06-11.04-3.06h-12.57v25.94h14.18ZM1026.1,128.89c3.44,0,6.55-.46,9.35-1.37,2.79-.91,5-2.36,6.61-4.35,1.61-1.99,2.42-4.48,2.42-7.49,0-3.44-.97-6.04-2.9-7.82-1.93-1.77-4.43-3.01-7.49-3.71-3.06-.7-6.26-1.05-9.59-1.05h-13.37v25.78h14.99Z"/>
      <path class="cls-1" d="M1092.01,32.04h80.89v22.56h-57.53v25.3h50.92v22.56h-50.92v25.62h59.78v22.56h-83.15V32.04Z"/>
      <path class="cls-1" d="M1295.53,138.72c-1.4,1.51-3.6,3.04-6.61,4.59-3.01,1.56-6.47,2.98-10.39,4.27-3.92,1.29-7.92,2.34-12.01,3.14-4.08.81-7.95,1.21-11.6,1.21-9.67,0-18.37-1.42-26.11-4.27-7.74-2.85-14.34-6.82-19.82-11.92-5.48-5.1-9.67-11.14-12.57-18.13-2.9-6.98-4.35-14.61-4.35-22.88,0-10.85,1.64-20.28,4.91-28.28,3.28-8,7.74-14.66,13.38-19.98,5.64-5.32,12.14-9.27,19.5-11.84,7.36-2.58,15.07-3.87,23.12-3.87,7.63,0,14.61.83,20.95,2.5,6.34,1.67,11.71,3.73,16.11,6.2l-7.57,21.75c-1.93-1.07-4.51-2.15-7.73-3.22-3.22-1.07-6.5-1.96-9.83-2.66-3.33-.7-6.28-1.05-8.86-1.05-6.45,0-12.14.81-17.08,2.42-4.94,1.61-9.11,4.03-12.49,7.25-3.38,3.22-5.94,7.23-7.65,12-1.72,4.78-2.58,10.34-2.58,16.68,0,5.59.97,10.61,2.9,15.07,1.93,4.46,4.65,8.25,8.14,11.36,3.49,3.12,7.63,5.48,12.41,7.09,4.78,1.61,10.07,2.42,15.87,2.42,3.33,0,6.39-.24,9.18-.73,2.79-.48,5.16-1.26,7.09-2.34v-14.34h-20.47v-22.56h44.15v50.12Z"/>
      <path class="cls-1" d="M1356.92,32.04c12.35,0,22.18,2.5,29.49,7.49,7.3,5,10.96,12.44,10.96,22.32,0,7.31-1.8,13.4-5.4,18.29-3.6,4.89-8.49,8.54-14.66,10.96-6.18,2.42-13.24,3.63-21.19,3.63l-3.71-12.57c9.77,0,18.45,1.34,26.02,4.03,7.57,2.69,13.56,6.53,17.97,11.52,4.4,5,6.61,10.99,6.61,17.97,0,6.45-1.16,11.9-3.46,16.36-2.31,4.46-5.43,8.06-9.35,10.8-3.92,2.74-8.35,4.73-13.29,5.96-4.94,1.24-10.05,1.85-15.31,1.85h-39.48V32.04h34.81ZM1359.66,80.55c4.62,0,8.03-1.4,10.23-4.19,2.2-2.79,3.3-5.96,3.3-9.51,0-4.08-1.37-7.14-4.11-9.19-2.74-2.04-6.42-3.06-11.04-3.06h-12.57v25.94h14.18ZM1360.47,128.89c3.44,0,6.55-.46,9.35-1.37,2.79-.91,5-2.36,6.61-4.35,1.61-1.99,2.42-4.48,2.42-7.49,0-3.44-.97-6.04-2.9-7.82-1.93-1.77-4.43-3.01-7.49-3.71-3.06-.7-6.26-1.05-9.59-1.05h-13.37v25.78h14.99Z"/>
      <path class="cls-1" d="M1426.38,32.04h23.37v118.6h-23.37V32.04Z"/>
      <path class="cls-1" d="M1480.36,32.04h80.89v22.56h-57.53v25.3h50.92v22.56h-50.92v25.62h59.78v22.56h-83.15V32.04Z"/>
    </g>
    <g>
      <path class="cls-2" d="M454.58,212.08c5.4,0,9.97.91,13.71,2.71,3.74,1.81,6.59,4.36,8.54,7.65,1.96,3.29,2.94,7.2,2.94,11.7,0,2.67-.4,5.36-1.2,8.05-.8,2.7-2.08,5.15-3.83,7.34-1.75,2.2-4.09,3.96-7.03,5.3-2.94,1.33-6.54,2-10.81,2h-9.26v20.74h-12.91v-65.5h19.85ZM456.81,244.3c1.96,0,3.59-.34,4.89-1.02,1.3-.68,2.33-1.54,3.07-2.58.74-1.04,1.28-2.12,1.6-3.25.33-1.13.49-2.11.49-2.94,0-.65-.1-1.53-.31-2.63-.21-1.1-.64-2.21-1.29-3.34-.65-1.13-1.65-2.08-2.98-2.85-1.34-.77-3.13-1.16-5.38-1.16h-9.26v19.76h9.17Z"/>
      <path class="cls-2" d="M553.91,212.08v65.5h-12.91v-26.61h-29.28v26.61h-12.91v-65.5h12.91v26.43h29.28v-26.43h12.91Z"/>
      <path class="cls-2" d="M574.29,244.92c0-4.51.86-8.78,2.58-12.82,1.72-4.03,4.11-7.61,7.16-10.72,3.06-3.11,6.6-5.56,10.64-7.34,4.03-1.78,8.37-2.67,12.99-2.67s8.87.89,12.91,2.67c4.03,1.78,7.61,4.23,10.72,7.34,3.12,3.12,5.55,6.69,7.3,10.72,1.75,4.04,2.62,8.31,2.62,12.82s-.88,8.96-2.62,12.99c-1.75,4.04-4.18,7.58-7.3,10.63-3.11,3.06-6.69,5.44-10.72,7.17-4.04,1.72-8.34,2.58-12.91,2.58s-8.96-.86-12.99-2.58c-4.04-1.72-7.58-4.11-10.64-7.17-3.06-3.05-5.44-6.6-7.16-10.63-1.72-4.03-2.58-8.37-2.58-12.99ZM587.64,244.92c0,2.91.52,5.62,1.56,8.14,1.04,2.52,2.49,4.75,4.36,6.67,1.87,1.93,4.03,3.43,6.5,4.49,2.46,1.07,5.15,1.6,8.05,1.6s5.38-.53,7.79-1.6c2.4-1.07,4.49-2.57,6.27-4.49,1.78-1.93,3.17-4.15,4.18-6.67,1.01-2.52,1.51-5.24,1.51-8.14s-.52-5.73-1.56-8.28c-1.04-2.55-2.46-4.79-4.27-6.72-1.81-1.93-3.93-3.43-6.36-4.49-2.43-1.07-5.07-1.6-7.92-1.6s-5.49.53-7.92,1.6c-2.43,1.07-4.57,2.57-6.41,4.49-1.84,1.93-3.26,4.17-4.27,6.72-1.01,2.55-1.51,5.31-1.51,8.28Z"/>
      <path class="cls-2" d="M654.92,212.08h44.14v12.46h-15.93v53.04h-12.9v-53.04h-15.31v-12.46Z"/>
      <path class="cls-2" d="M712.77,244.92c0-4.51.86-8.78,2.58-12.82,1.72-4.03,4.11-7.61,7.16-10.72,3.06-3.11,6.6-5.56,10.64-7.34,4.03-1.78,8.37-2.67,12.99-2.67s8.87.89,12.91,2.67c4.03,1.78,7.61,4.23,10.72,7.34,3.12,3.12,5.55,6.69,7.3,10.72,1.75,4.04,2.62,8.31,2.62,12.82s-.88,8.96-2.62,12.99c-1.75,4.04-4.18,7.58-7.3,10.63-3.11,3.06-6.69,5.44-10.72,7.17-4.04,1.72-8.34,2.58-12.91,2.58s-8.96-.86-12.99-2.58c-4.04-1.72-7.58-4.11-10.64-7.17-3.06-3.05-5.44-6.6-7.16-10.63-1.72-4.03-2.58-8.37-2.58-12.99ZM726.12,244.92c0,2.91.52,5.62,1.56,8.14,1.04,2.52,2.49,4.75,4.36,6.67,1.87,1.93,4.03,3.43,6.5,4.49,2.46,1.07,5.15,1.6,8.05,1.6s5.38-.53,7.79-1.6c2.4-1.07,4.49-2.57,6.27-4.49,1.78-1.93,3.17-4.15,4.18-6.67,1.01-2.52,1.51-5.24,1.51-8.14s-.52-5.73-1.56-8.28c-1.04-2.55-2.46-4.79-4.27-6.72-1.81-1.93-3.93-3.43-6.36-4.49-2.43-1.07-5.07-1.6-7.92-1.6s-5.49.53-7.92,1.6c-2.43,1.07-4.57,2.57-6.41,4.49-1.84,1.93-3.26,4.17-4.27,6.72-1.01,2.55-1.51,5.31-1.51,8.28Z"/>
      <path class="cls-2" d="M853.21,271c-.77.83-1.99,1.68-3.65,2.54-1.66.86-3.58,1.65-5.74,2.36-2.17.71-4.38,1.29-6.63,1.74-2.26.45-4.39.67-6.41.67-5.34,0-10.15-.79-14.42-2.36-4.27-1.57-7.92-3.77-10.95-6.59-3.03-2.82-5.34-6.16-6.94-10.01-1.6-3.86-2.4-8.07-2.4-12.64,0-5.99.9-11.2,2.71-15.62,1.81-4.42,4.27-8.1,7.39-11.04,3.11-2.94,6.7-5.12,10.77-6.54,4.06-1.42,8.32-2.14,12.77-2.14,4.21,0,8.07.46,11.57,1.38,3.5.92,6.47,2.06,8.9,3.43l-4.18,12.02c-1.07-.59-2.49-1.19-4.27-1.78-1.78-.59-3.59-1.08-5.43-1.47-1.84-.39-3.47-.58-4.89-.58-3.56,0-6.71.45-9.43,1.33-2.73.89-5.03,2.23-6.9,4.01-1.87,1.78-3.28,3.99-4.23,6.63-.95,2.64-1.42,5.71-1.42,9.21,0,3.09.53,5.86,1.6,8.32,1.07,2.46,2.57,4.55,4.49,6.27,1.93,1.72,4.21,3.03,6.85,3.92,2.64.89,5.56,1.33,8.77,1.33,1.84,0,3.53-.13,5.07-.4,1.54-.27,2.85-.7,3.92-1.29v-7.92h-11.3v-12.46h24.39v27.68Z"/>
      <path class="cls-2" d="M895.22,212.08c4.09,0,7.74.52,10.95,1.56,3.2,1.04,5.89,2.52,8.05,4.45,2.17,1.93,3.81,4.24,4.94,6.94,1.13,2.7,1.69,5.74,1.69,9.12,0,2.67-.4,5.34-1.2,8.01s-2.11,5.1-3.92,7.3c-1.81,2.2-4.2,3.96-7.16,5.29-2.97,1.33-6.65,2-11.04,2h-9.26v20.83h-12.91v-65.5h19.85ZM897.44,244.3c1.96,0,3.59-.33,4.89-.98,1.3-.65,2.33-1.48,3.07-2.49.74-1.01,1.28-2.06,1.6-3.16.33-1.1.49-2.12.49-3.07,0-.71-.1-1.62-.31-2.71-.21-1.1-.64-2.21-1.29-3.34-.65-1.13-1.65-2.08-2.98-2.85-1.34-.77-3.13-1.16-5.38-1.16h-9.26v19.76h9.17ZM909.55,252.31l16.2,25.28h-15.04l-16.55-24.92,15.4-.36Z"/>
      <path class="cls-2" d="M936.51,277.59l29.55-68.09h.71l29.55,68.09h-14.95l-18.87-47.88,9.35-6.41-22.61,54.29h-12.73ZM956.72,253.91h19.67l4.54,10.86h-28.21l4.01-10.86Z"/>
      <path class="cls-2" d="M1033.17,212.08c5.4,0,9.97.91,13.71,2.71,3.74,1.81,6.59,4.36,8.54,7.65,1.96,3.29,2.94,7.2,2.94,11.7,0,2.67-.4,5.36-1.2,8.05-.8,2.7-2.08,5.15-3.83,7.34-1.75,2.2-4.09,3.96-7.03,5.3-2.94,1.33-6.54,2-10.81,2h-9.26v20.74h-12.91v-65.5h19.85ZM1035.39,244.3c1.96,0,3.59-.34,4.89-1.02,1.3-.68,2.33-1.54,3.07-2.58.74-1.04,1.28-2.12,1.6-3.25.33-1.13.49-2.11.49-2.94,0-.65-.1-1.53-.31-2.63-.21-1.1-.64-2.21-1.29-3.34-.65-1.13-1.65-2.08-2.98-2.85-1.34-.77-3.13-1.16-5.38-1.16h-9.26v19.76h9.17Z"/>
      <path class="cls-2" d="M1132.49,212.08v65.5h-12.91v-26.61h-29.28v26.61h-12.91v-65.5h12.91v26.43h29.28v-26.43h12.91Z"/>
      <path class="cls-2" d="M1156.88,212.08h44.68v12.46h-31.77v13.97h28.12v12.46h-28.12v14.15h33.02v12.46h-45.92v-65.5Z"/>
      <path class="cls-2" d="M1243.47,212.08c4.09,0,7.74.52,10.95,1.56,3.2,1.04,5.89,2.52,8.05,4.45,2.17,1.93,3.81,4.24,4.94,6.94,1.13,2.7,1.69,5.74,1.69,9.12,0,2.67-.4,5.34-1.2,8.01s-2.11,5.1-3.92,7.3c-1.81,2.2-4.2,3.96-7.16,5.29-2.97,1.33-6.65,2-11.04,2h-9.26v20.83h-12.91v-65.5h19.85ZM1245.7,244.3c1.96,0,3.59-.33,4.89-.98,1.3-.65,2.33-1.48,3.07-2.49.74-1.01,1.28-2.06,1.6-3.16.33-1.1.49-2.12.49-3.07,0-.71-.1-1.62-.31-2.71-.21-1.1-.64-2.21-1.29-3.34-.65-1.13-1.65-2.08-2.98-2.85-1.34-.77-3.13-1.16-5.38-1.16h-9.26v19.76h9.17ZM1257.8,252.31l16.2,25.28h-15.04l-16.55-24.92,15.4-.36Z"/>
    </g>
  </g>
</svg>